<svg width="297" height="369" viewBox="0 0 297 369" fill="none" xmlns="http://www.w3.org/2000/svg">
<rect x="31.9154" y="-1.45436" width="267" height="348" rx="23.5" transform="rotate(5.50256 31.9154 -1.45436)" fill="#FAFAFA" stroke="#E7E7E7"/>
<rect x="13.5" y="10.5" width="269" height="350" rx="24.5" fill="white"/>
<rect x="13.5" y="10.5" width="269" height="350" rx="24.5" fill="url(#paint0_radial_18_134)" fill-opacity="0.3"/>
<rect x="13.5" y="10.5" width="269" height="350" rx="24.5" fill="url(#paint1_radial_18_134)" fill-opacity="0.3"/>
<rect x="13.5" y="10.5" width="269" height="350" rx="24.5" fill="url(#paint2_radial_18_134)" fill-opacity="0.4"/>
<rect x="13.5" y="10.5" width="269" height="350" rx="24.5" stroke="#E4E4E4"/>
<mask id="mask0_18_134" style="mask-type:alpha" maskUnits="userSpaceOnUse" x="14" y="11" width="268" height="349">
<rect x="14" y="11" width="268" height="349" rx="24" fill="white"/>
</mask>
<g mask="url(#mask0_18_134)">
<path d="M39.598 71.4545H42.2614L46.892 82.7614H47.0625L51.6932 71.4545H54.3565V86H52.2685V75.4744H52.1335L47.8438 85.9787H46.1108L41.821 75.4673H41.6861V86H39.598V71.4545ZM61.9719 86.2202C60.9492 86.2202 60.0567 85.9858 59.2944 85.517C58.5321 85.0483 57.9402 84.3925 57.5188 83.5497C57.0974 82.7069 56.8867 81.7221 56.8867 80.5952C56.8867 79.4635 57.0974 78.474 57.5188 77.6264C57.9402 76.7789 58.5321 76.1207 59.2944 75.652C60.0567 75.1832 60.9492 74.9489 61.9719 74.9489C62.9947 74.9489 63.8872 75.1832 64.6495 75.652C65.4118 76.1207 66.0037 76.7789 66.4251 77.6264C66.8465 78.474 67.0572 79.4635 67.0572 80.5952C67.0572 81.7221 66.8465 82.7069 66.4251 83.5497C66.0037 84.3925 65.4118 85.0483 64.6495 85.517C63.8872 85.9858 62.9947 86.2202 61.9719 86.2202ZM61.979 84.4375C62.6419 84.4375 63.1912 84.2623 63.6268 83.9119C64.0624 83.5616 64.3844 83.0952 64.5927 82.5128C64.8058 81.9304 64.9123 81.2888 64.9123 80.5881C64.9123 79.892 64.8058 79.2528 64.5927 78.6705C64.3844 78.0833 64.0624 77.6122 63.6268 77.2571C63.1912 76.902 62.6419 76.7244 61.979 76.7244C61.3114 76.7244 60.7575 76.902 60.3171 77.2571C59.8815 77.6122 59.5572 78.0833 59.3441 78.6705C59.1358 79.2528 59.0316 79.892 59.0316 80.5881C59.0316 81.2888 59.1358 81.9304 59.3441 82.5128C59.5572 83.0952 59.8815 83.5616 60.3171 83.9119C60.7575 84.2623 61.3114 84.4375 61.979 84.4375ZM74.0227 86.2202C73 86.2202 72.1075 85.9858 71.3452 85.517C70.5829 85.0483 69.991 84.3925 69.5696 83.5497C69.1482 82.7069 68.9375 81.7221 68.9375 80.5952C68.9375 79.4635 69.1482 78.474 69.5696 77.6264C69.991 76.7789 70.5829 76.1207 71.3452 75.652C72.1075 75.1832 73 74.9489 74.0227 74.9489C75.0455 74.9489 75.938 75.1832 76.7003 75.652C77.4626 76.1207 78.0545 76.7789 78.4759 77.6264C78.8973 78.474 79.108 79.4635 79.108 80.5952C79.108 81.7221 78.8973 82.7069 78.4759 83.5497C78.0545 84.3925 77.4626 85.0483 76.7003 85.517C75.938 85.9858 75.0455 86.2202 74.0227 86.2202ZM74.0298 84.4375C74.6927 84.4375 75.242 84.2623 75.6776 83.9119C76.1132 83.5616 76.4351 83.0952 76.6435 82.5128C76.8565 81.9304 76.9631 81.2888 76.9631 80.5881C76.9631 79.892 76.8565 79.2528 76.6435 78.6705C76.4351 78.0833 76.1132 77.6122 75.6776 77.2571C75.242 76.902 74.6927 76.7244 74.0298 76.7244C73.3622 76.7244 72.8082 76.902 72.3679 77.2571C71.9323 77.6122 71.608 78.0833 71.3949 78.6705C71.1866 79.2528 71.0824 79.892 71.0824 80.5881C71.0824 81.2888 71.1866 81.9304 71.3949 82.5128C71.608 83.0952 71.9323 83.5616 72.3679 83.9119C72.8082 84.2623 73.3622 84.4375 74.0298 84.4375ZM83.6019 79.5227V86H81.4783V75.0909H83.5167V76.8665H83.6516C83.9026 76.2888 84.2956 75.8248 84.8306 75.4744C85.3704 75.1241 86.0498 74.9489 86.869 74.9489C87.6123 74.9489 88.2634 75.1051 88.8221 75.4176C89.3808 75.7254 89.814 76.1847 90.1218 76.7955C90.4296 77.4062 90.5835 78.1615 90.5835 79.0611V86H88.4599V79.3168C88.4599 78.526 88.2539 77.9081 87.842 77.4631C87.43 77.0133 86.8642 76.7884 86.1445 76.7884C85.6521 76.7884 85.2141 76.8949 84.8306 77.108C84.4518 77.321 84.1512 77.6335 83.9286 78.0455C83.7108 78.4527 83.6019 78.9451 83.6019 79.5227ZM94.3832 90.0909C94.0659 90.0909 93.7771 90.0649 93.5167 90.0128C93.2563 89.9654 93.0621 89.9134 92.9343 89.8565L93.4457 88.1165C93.8339 88.2206 94.1796 88.2656 94.4826 88.2514C94.7856 88.2372 95.0531 88.1236 95.2852 87.9105C95.5219 87.6974 95.7302 87.3494 95.9102 86.8665L96.1729 86.142L92.1815 75.0909H94.4542L97.217 83.5568H97.3306L100.093 75.0909H102.373L97.8775 87.456C97.6692 88.0241 97.404 88.5047 97.082 88.8977C96.7601 89.2955 96.3765 89.5938 95.9315 89.7926C95.4864 89.9915 94.9703 90.0909 94.3832 90.0909ZM108.593 86.2202C107.57 86.2202 106.678 85.9858 105.915 85.517C105.153 85.0483 104.561 84.3925 104.14 83.5497C103.719 82.7069 103.508 81.7221 103.508 80.5952C103.508 79.4635 103.719 78.474 104.14 77.6264C104.561 76.7789 105.153 76.1207 105.915 75.652C106.678 75.1832 107.57 74.9489 108.593 74.9489C109.616 74.9489 110.508 75.1832 111.271 75.652C112.033 76.1207 112.625 76.7789 113.046 77.6264C113.468 78.474 113.678 79.4635 113.678 80.5952C113.678 81.7221 113.468 82.7069 113.046 83.5497C112.625 84.3925 112.033 85.0483 111.271 85.517C110.508 85.9858 109.616 86.2202 108.593 86.2202ZM108.6 84.4375C109.263 84.4375 109.812 84.2623 110.248 83.9119C110.683 83.5616 111.005 83.0952 111.214 82.5128C111.427 81.9304 111.533 81.2888 111.533 80.5881C111.533 79.892 111.427 79.2528 111.214 78.6705C111.005 78.0833 110.683 77.6122 110.248 77.2571C109.812 76.902 109.263 76.7244 108.6 76.7244C107.933 76.7244 107.379 76.902 106.938 77.2571C106.503 77.6122 106.178 78.0833 105.965 78.6705C105.757 79.2528 105.653 79.892 105.653 80.5881C105.653 81.2888 105.757 81.9304 105.965 82.5128C106.178 83.0952 106.503 83.5616 106.938 83.9119C107.379 84.2623 107.933 84.4375 108.6 84.4375ZM122.959 81.4759V75.0909H125.09V86H123.002V84.1108H122.888C122.637 84.6932 122.235 85.1785 121.681 85.5668C121.132 85.9503 120.447 86.142 119.628 86.142C118.927 86.142 118.307 85.9882 117.767 85.6804C117.232 85.3679 116.811 84.9062 116.503 84.2955C116.2 83.6847 116.049 82.9295 116.049 82.0298V75.0909H118.172V81.7741C118.172 82.5175 118.378 83.1094 118.79 83.5497C119.202 83.9901 119.737 84.2102 120.395 84.2102C120.793 84.2102 121.188 84.1108 121.581 83.9119C121.979 83.7131 122.308 83.4124 122.569 83.0099C122.834 82.6075 122.964 82.0961 122.959 81.4759ZM130.067 79.5227V86H127.943V75.0909H129.982V76.8665H130.116C130.367 76.2888 130.76 75.8248 131.295 75.4744C131.835 75.1241 132.515 74.9489 133.334 74.9489C134.077 74.9489 134.728 75.1051 135.287 75.4176C135.846 75.7254 136.279 76.1847 136.587 76.7955C136.894 77.4062 137.048 78.1615 137.048 79.0611V86H134.925V79.3168C134.925 78.526 134.719 77.9081 134.307 77.4631C133.895 77.0133 133.329 76.7884 132.609 76.7884C132.117 76.7884 131.679 76.8949 131.295 77.108C130.917 77.321 130.616 77.6335 130.393 78.0455C130.176 78.4527 130.067 78.9451 130.067 79.5227ZM144.47 90.3182C143.604 90.3182 142.858 90.2045 142.233 89.9773C141.613 89.75 141.106 89.4493 140.713 89.0753C140.32 88.7012 140.027 88.2917 139.832 87.8466L141.658 87.0938C141.786 87.3021 141.956 87.5223 142.169 87.7543C142.387 87.991 142.68 88.1922 143.05 88.358C143.424 88.5237 143.904 88.6065 144.491 88.6065C145.296 88.6065 145.962 88.41 146.487 88.017C147.013 87.6288 147.276 87.0085 147.276 86.1562V84.0114H147.141C147.013 84.2434 146.828 84.5014 146.587 84.7855C146.35 85.0696 146.023 85.3158 145.607 85.5241C145.19 85.7325 144.648 85.8366 143.98 85.8366C143.118 85.8366 142.342 85.6354 141.651 85.233C140.964 84.8258 140.42 84.2268 140.017 83.4361C139.619 82.6406 139.42 81.6629 139.42 80.5028C139.42 79.3428 139.617 78.3485 140.01 77.5199C140.408 76.6913 140.952 76.0568 141.643 75.6165C142.335 75.1714 143.118 74.9489 143.994 74.9489C144.671 74.9489 145.218 75.0625 145.635 75.2898C146.052 75.5123 146.376 75.7727 146.608 76.071C146.845 76.3693 147.027 76.6321 147.155 76.8594H147.311V75.0909H149.392V86.2415C149.392 87.179 149.174 87.9484 148.739 88.5497C148.303 89.151 147.714 89.5961 146.97 89.8849C146.232 90.1738 145.398 90.3182 144.47 90.3182ZM144.449 84.0753C145.06 84.0753 145.576 83.9332 145.997 83.6491C146.423 83.3603 146.745 82.9484 146.963 82.4134C147.186 81.8736 147.297 81.2273 147.297 80.4744C147.297 79.7405 147.188 79.0942 146.97 78.5355C146.752 77.9768 146.433 77.5412 146.011 77.2287C145.59 76.9115 145.069 76.7528 144.449 76.7528C143.81 76.7528 143.277 76.9186 142.851 77.25C142.425 77.5767 142.103 78.0218 141.885 78.5852C141.672 79.1487 141.565 79.7784 141.565 80.4744C141.565 81.1894 141.674 81.8168 141.892 82.3565C142.11 82.8963 142.432 83.3177 142.858 83.6207C143.289 83.9238 143.819 84.0753 144.449 84.0753ZM157.703 86V71.4545H159.827V76.8594H159.955C160.078 76.6321 160.256 76.3693 160.488 76.071C160.72 75.7727 161.042 75.5123 161.453 75.2898C161.865 75.0625 162.41 74.9489 163.087 74.9489C163.968 74.9489 164.754 75.1714 165.445 75.6165C166.136 76.0616 166.678 76.7031 167.071 77.5412C167.469 78.3793 167.668 79.3878 167.668 80.5668C167.668 81.7457 167.471 82.7566 167.078 83.5994C166.685 84.4375 166.146 85.0838 165.459 85.5384C164.773 85.9882 163.989 86.2131 163.108 86.2131C162.445 86.2131 161.903 86.1018 161.482 85.8793C161.065 85.6567 160.739 85.3963 160.502 85.098C160.265 84.7997 160.083 84.5346 159.955 84.3026H159.777V86H157.703ZM159.784 80.5455C159.784 81.3125 159.896 81.9848 160.118 82.5625C160.341 83.1402 160.663 83.5923 161.084 83.919C161.506 84.241 162.022 84.402 162.632 84.402C163.267 84.402 163.797 84.2339 164.223 83.8977C164.65 83.5568 164.971 83.0952 165.189 82.5128C165.412 81.9304 165.523 81.2746 165.523 80.5455C165.523 79.8258 165.414 79.1795 165.196 78.6065C164.983 78.0336 164.661 77.5814 164.23 77.25C163.804 76.9186 163.272 76.7528 162.632 76.7528C162.017 76.7528 161.496 76.9115 161.07 77.2287C160.649 77.5459 160.329 77.9886 160.111 78.5568C159.893 79.125 159.784 79.7879 159.784 80.5455ZM176.963 81.4759V75.0909H179.094V86H177.006V84.1108H176.892C176.641 84.6932 176.239 85.1785 175.685 85.5668C175.135 85.9503 174.451 86.142 173.632 86.142C172.931 86.142 172.311 85.9882 171.771 85.6804C171.236 85.3679 170.815 84.9062 170.507 84.2955C170.204 83.6847 170.053 82.9295 170.053 82.0298V75.0909H172.176V81.7741C172.176 82.5175 172.382 83.1094 172.794 83.5497C173.206 83.9901 173.741 84.2102 174.399 84.2102C174.797 84.2102 175.192 84.1108 175.585 83.9119C175.983 83.7131 176.312 83.4124 176.572 83.0099C176.838 82.6075 176.968 82.0961 176.963 81.4759ZM181.947 86V75.0909H184.071V86H181.947ZM183.02 73.4077C182.65 73.4077 182.333 73.2846 182.068 73.0384C181.807 72.7874 181.677 72.4891 181.677 72.1435C181.677 71.7931 181.807 71.4948 182.068 71.2486C182.333 70.9976 182.65 70.8722 183.02 70.8722C183.389 70.8722 183.704 70.9976 183.964 71.2486C184.229 71.4948 184.362 71.7931 184.362 72.1435C184.362 72.4891 184.229 72.7874 183.964 73.0384C183.704 73.2846 183.389 73.4077 183.02 73.4077ZM189.051 71.4545V86H186.928V71.4545H189.051ZM195.992 86.2131C195.111 86.2131 194.325 85.9882 193.634 85.5384C192.947 85.0838 192.408 84.4375 192.015 83.5994C191.626 82.7566 191.432 81.7457 191.432 80.5668C191.432 79.3878 191.629 78.3793 192.022 77.5412C192.419 76.7031 192.964 76.0616 193.655 75.6165C194.346 75.1714 195.13 74.9489 196.006 74.9489C196.683 74.9489 197.228 75.0625 197.64 75.2898C198.056 75.5123 198.378 75.7727 198.605 76.071C198.837 76.3693 199.017 76.6321 199.145 76.8594H199.273V71.4545H201.397V86H199.323V84.3026H199.145C199.017 84.5346 198.833 84.7997 198.591 85.098C198.355 85.3963 198.028 85.6567 197.611 85.8793C197.194 86.1018 196.655 86.2131 195.992 86.2131ZM196.461 84.402C197.071 84.402 197.587 84.241 198.009 83.919C198.435 83.5923 198.757 83.1402 198.975 82.5625C199.197 81.9848 199.309 81.3125 199.309 80.5455C199.309 79.7879 199.2 79.125 198.982 78.5568C198.764 77.9886 198.444 77.5459 198.023 77.2287C197.602 76.9115 197.081 76.7528 196.461 76.7528C195.821 76.7528 195.289 76.9186 194.863 77.25C194.436 77.5814 194.114 78.0336 193.897 78.6065C193.684 79.1795 193.577 79.8258 193.577 80.5455C193.577 81.2746 193.686 81.9304 193.904 82.5128C194.122 83.0952 194.444 83.5568 194.87 83.8977C195.301 84.2339 195.831 84.402 196.461 84.402ZM44.1293 142.22C43.0545 142.22 42.1288 141.991 41.3523 141.531C40.5805 141.067 39.9839 140.416 39.5625 139.578C39.1458 138.735 38.9375 137.748 38.9375 136.616C38.9375 135.499 39.1458 134.514 39.5625 133.662C39.9839 132.81 40.571 132.144 41.3239 131.666C42.0814 131.188 42.9669 130.949 43.9801 130.949C44.5956 130.949 45.1922 131.051 45.7699 131.254C46.3475 131.458 46.866 131.777 47.3253 132.213C47.7846 132.649 48.1468 133.214 48.4119 133.911C48.6771 134.602 48.8097 135.442 48.8097 136.432V137.185H40.1378V135.594H46.7287C46.7287 135.035 46.6151 134.54 46.3878 134.109C46.1605 133.674 45.8409 133.33 45.429 133.08C45.0218 132.829 44.5436 132.703 43.9943 132.703C43.3977 132.703 42.8769 132.85 42.4318 133.143C41.9915 133.432 41.6506 133.811 41.4091 134.28C41.1723 134.744 41.054 135.248 41.054 135.793V137.036C41.054 137.765 41.1818 138.385 41.4375 138.896C41.6979 139.408 42.0601 139.798 42.5241 140.068C42.9882 140.333 43.5303 140.466 44.1506 140.466C44.553 140.466 44.92 140.409 45.2514 140.295C45.5829 140.177 45.8693 140.002 46.1108 139.77C46.3523 139.538 46.5369 139.251 46.6648 138.911L48.6747 139.273C48.5137 139.865 48.2249 140.383 47.8082 140.828C47.3963 141.268 46.8778 141.612 46.2528 141.858C45.6326 142.099 44.9247 142.22 44.1293 142.22ZM52.5881 131.091L54.9957 135.338L57.4247 131.091H59.7472L56.3452 136.545L59.7756 142H57.4531L54.9957 137.923L52.5455 142H50.2159L53.6108 136.545L50.2585 131.091H52.5881ZM61.9276 146.091V131.091H64.0014V132.859H64.179C64.3021 132.632 64.4796 132.369 64.7116 132.071C64.9437 131.773 65.2656 131.512 65.6776 131.29C66.0895 131.062 66.634 130.949 67.3111 130.949C68.1918 130.949 68.9777 131.171 69.669 131.616C70.3603 132.062 70.9025 132.703 71.2955 133.541C71.6932 134.379 71.892 135.388 71.892 136.567C71.892 137.746 71.6955 138.757 71.3026 139.599C70.9096 140.437 70.3698 141.084 69.6832 141.538C68.9967 141.988 68.2131 142.213 67.3324 142.213C66.6695 142.213 66.1274 142.102 65.706 141.879C65.2893 141.657 64.9626 141.396 64.7259 141.098C64.4891 140.8 64.3068 140.535 64.179 140.303H64.0511V146.091H61.9276ZM64.0085 136.545C64.0085 137.312 64.1198 137.985 64.3423 138.562C64.5649 139.14 64.8868 139.592 65.3082 139.919C65.7296 140.241 66.2457 140.402 66.8565 140.402C67.491 140.402 68.0213 140.234 68.4474 139.898C68.8736 139.557 69.1955 139.095 69.4134 138.513C69.6359 137.93 69.7472 137.275 69.7472 136.545C69.7472 135.826 69.6383 135.179 69.4205 134.607C69.2074 134.034 68.8854 133.581 68.4545 133.25C68.0284 132.919 67.4957 132.753 66.8565 132.753C66.241 132.753 65.7202 132.911 65.294 133.229C64.8726 133.546 64.553 133.989 64.3352 134.557C64.1174 135.125 64.0085 135.788 64.0085 136.545ZM78.973 142.22C77.8982 142.22 76.9725 141.991 76.196 141.531C75.4242 141.067 74.8277 140.416 74.4062 139.578C73.9896 138.735 73.7812 137.748 73.7812 136.616C73.7812 135.499 73.9896 134.514 74.4062 133.662C74.8277 132.81 75.4148 132.144 76.1676 131.666C76.9252 131.188 77.8106 130.949 78.8239 130.949C79.4394 130.949 80.036 131.051 80.6136 131.254C81.1913 131.458 81.7098 131.777 82.169 132.213C82.6283 132.649 82.9905 133.214 83.2557 133.911C83.5208 134.602 83.6534 135.442 83.6534 136.432V137.185H74.9815V135.594H81.5724C81.5724 135.035 81.4588 134.54 81.2315 134.109C81.0043 133.674 80.6847 133.33 80.2727 133.08C79.8655 132.829 79.3873 132.703 78.8381 132.703C78.2415 132.703 77.7206 132.85 77.2756 133.143C76.8352 133.432 76.4943 133.811 76.2528 134.28C76.0161 134.744 75.8977 135.248 75.8977 135.793V137.036C75.8977 137.765 76.0256 138.385 76.2812 138.896C76.5417 139.408 76.9039 139.798 77.3679 140.068C77.8319 140.333 78.3741 140.466 78.9943 140.466C79.3968 140.466 79.7637 140.409 80.0952 140.295C80.4266 140.177 80.7131 140.002 80.9545 139.77C81.196 139.538 81.3807 139.251 81.5085 138.911L83.5185 139.273C83.3575 139.865 83.0687 140.383 82.652 140.828C82.2401 141.268 81.7216 141.612 81.0966 141.858C80.4763 142.099 79.7685 142.22 78.973 142.22ZM86.0096 142V131.091H88.0621V132.824H88.1758C88.3746 132.237 88.725 131.775 89.2269 131.439C89.7335 131.098 90.3065 130.928 90.9457 130.928C91.0782 130.928 91.2345 130.932 91.4144 130.942C91.5991 130.951 91.7435 130.963 91.8477 130.977V133.009C91.7624 132.985 91.6109 132.959 91.3931 132.93C91.1753 132.897 90.9575 132.881 90.7397 132.881C90.2378 132.881 89.7904 132.987 89.3974 133.2C89.0091 133.409 88.7013 133.7 88.4741 134.074C88.2468 134.443 88.1332 134.865 88.1332 135.338V142H86.0096ZM93.6854 142V131.091H95.8089V142H93.6854ZM94.7578 129.408C94.3885 129.408 94.0713 129.285 93.8061 129.038C93.5457 128.787 93.4155 128.489 93.4155 128.143C93.4155 127.793 93.5457 127.495 93.8061 127.249C94.0713 126.998 94.3885 126.872 94.7578 126.872C95.1271 126.872 95.442 126.998 95.7024 127.249C95.9676 127.495 96.1001 127.793 96.1001 128.143C96.1001 128.489 95.9676 128.787 95.7024 129.038C95.442 129.285 95.1271 129.408 94.7578 129.408ZM103.368 142.22C102.293 142.22 101.367 141.991 100.591 141.531C99.8188 141.067 99.2222 140.416 98.8008 139.578C98.3841 138.735 98.1758 137.748 98.1758 136.616C98.1758 135.499 98.3841 134.514 98.8008 133.662C99.2222 132.81 99.8093 132.144 100.562 131.666C101.32 131.188 102.205 130.949 103.218 130.949C103.834 130.949 104.431 131.051 105.008 131.254C105.586 131.458 106.104 131.777 106.564 132.213C107.023 132.649 107.385 133.214 107.65 133.911C107.915 134.602 108.048 135.442 108.048 136.432V137.185H99.3761V135.594H105.967C105.967 135.035 105.853 134.54 105.626 134.109C105.399 133.674 105.079 133.33 104.667 133.08C104.26 132.829 103.782 132.703 103.233 132.703C102.636 132.703 102.115 132.85 101.67 133.143C101.23 133.432 100.889 133.811 100.647 134.28C100.411 134.744 100.292 135.248 100.292 135.793V137.036C100.292 137.765 100.42 138.385 100.676 138.896C100.936 139.408 101.298 139.798 101.762 140.068C102.226 140.333 102.769 140.466 103.389 140.466C103.791 140.466 104.158 140.409 104.49 140.295C104.821 140.177 105.108 140.002 105.349 139.77C105.591 139.538 105.775 139.251 105.903 138.911L107.913 139.273C107.752 139.865 107.463 140.383 107.047 140.828C106.635 141.268 106.116 141.612 105.491 141.858C104.871 142.099 104.163 142.22 103.368 142.22ZM112.528 135.523V142H110.404V131.091H112.442V132.866H112.577C112.828 132.289 113.221 131.825 113.756 131.474C114.296 131.124 114.976 130.949 115.795 130.949C116.538 130.949 117.189 131.105 117.748 131.418C118.307 131.725 118.74 132.185 119.048 132.795C119.355 133.406 119.509 134.161 119.509 135.061V142H117.386V135.317C117.386 134.526 117.18 133.908 116.768 133.463C116.356 133.013 115.79 132.788 115.07 132.788C114.578 132.788 114.14 132.895 113.756 133.108C113.378 133.321 113.077 133.634 112.854 134.045C112.637 134.453 112.528 134.945 112.528 135.523ZM126.952 142.22C125.897 142.22 124.987 141.981 124.225 141.503C123.468 141.02 122.885 140.355 122.478 139.507C122.071 138.66 121.867 137.689 121.867 136.595C121.867 135.487 122.076 134.509 122.492 133.662C122.909 132.81 123.496 132.144 124.254 131.666C125.011 131.188 125.904 130.949 126.931 130.949C127.76 130.949 128.498 131.103 129.147 131.411C129.796 131.714 130.319 132.14 130.717 132.689C131.119 133.238 131.358 133.88 131.434 134.614H129.367C129.254 134.102 128.993 133.662 128.586 133.293C128.183 132.923 127.644 132.739 126.967 132.739C126.375 132.739 125.856 132.895 125.411 133.207C124.971 133.515 124.628 133.955 124.381 134.528C124.135 135.097 124.012 135.769 124.012 136.545C124.012 137.341 124.133 138.027 124.374 138.605C124.616 139.183 124.957 139.63 125.397 139.947C125.842 140.265 126.365 140.423 126.967 140.423C127.369 140.423 127.734 140.35 128.06 140.203C128.392 140.052 128.669 139.836 128.891 139.557C129.119 139.277 129.277 138.941 129.367 138.548H131.434C131.358 139.254 131.129 139.884 130.745 140.438C130.362 140.991 129.848 141.427 129.204 141.744C128.565 142.062 127.814 142.22 126.952 142.22ZM138.407 142.22C137.332 142.22 136.406 141.991 135.63 141.531C134.858 141.067 134.261 140.416 133.84 139.578C133.423 138.735 133.215 137.748 133.215 136.616C133.215 135.499 133.423 134.514 133.84 133.662C134.261 132.81 134.848 132.144 135.601 131.666C136.359 131.188 137.244 130.949 138.257 130.949C138.873 130.949 139.47 131.051 140.047 131.254C140.625 131.458 141.143 131.777 141.603 132.213C142.062 132.649 142.424 133.214 142.689 133.911C142.954 134.602 143.087 135.442 143.087 136.432V137.185H134.415V135.594H141.006C141.006 135.035 140.892 134.54 140.665 134.109C140.438 133.674 140.118 133.33 139.706 133.08C139.299 132.829 138.821 132.703 138.272 132.703C137.675 132.703 137.154 132.85 136.709 133.143C136.269 133.432 135.928 133.811 135.686 134.28C135.45 134.744 135.331 135.248 135.331 135.793V137.036C135.331 137.765 135.459 138.385 135.715 138.896C135.975 139.408 136.337 139.798 136.801 140.068C137.266 140.333 137.808 140.466 138.428 140.466C138.83 140.466 139.197 140.409 139.529 140.295C139.86 140.177 140.147 140.002 140.388 139.77C140.63 139.538 140.814 139.251 140.942 138.911L142.952 139.273C142.791 139.865 142.502 140.383 142.086 140.828C141.674 141.268 141.155 141.612 140.53 141.858C139.91 142.099 139.202 142.22 138.407 142.22ZM153.618 133.754L151.693 134.095C151.613 133.849 151.485 133.615 151.31 133.392C151.139 133.17 150.907 132.987 150.614 132.845C150.32 132.703 149.953 132.632 149.513 132.632C148.911 132.632 148.41 132.767 148.007 133.037C147.605 133.302 147.403 133.645 147.403 134.067C147.403 134.431 147.538 134.725 147.808 134.947C148.078 135.17 148.514 135.352 149.115 135.494L150.848 135.892C151.852 136.124 152.6 136.482 153.092 136.964C153.585 137.447 153.831 138.075 153.831 138.847C153.831 139.5 153.642 140.082 153.263 140.594C152.889 141.1 152.366 141.498 151.693 141.787C151.026 142.076 150.251 142.22 149.371 142.22C148.149 142.22 147.152 141.96 146.381 141.439C145.609 140.913 145.135 140.168 144.96 139.202L147.013 138.889C147.141 139.424 147.403 139.829 147.801 140.104C148.199 140.374 148.717 140.509 149.357 140.509C150.053 140.509 150.609 140.364 151.026 140.075C151.442 139.782 151.651 139.424 151.651 139.003C151.651 138.662 151.523 138.375 151.267 138.143C151.016 137.911 150.63 137.736 150.109 137.618L148.263 137.213C147.245 136.981 146.492 136.612 146.004 136.105C145.521 135.598 145.28 134.957 145.28 134.18C145.28 133.536 145.46 132.973 145.82 132.49C146.179 132.007 146.677 131.631 147.311 131.361C147.946 131.086 148.672 130.949 149.491 130.949C150.67 130.949 151.598 131.205 152.276 131.716C152.953 132.223 153.4 132.902 153.618 133.754ZM157.565 142.135C157.177 142.135 156.843 141.998 156.564 141.723C156.284 141.444 156.145 141.107 156.145 140.714C156.145 140.326 156.284 139.995 156.564 139.72C156.843 139.441 157.177 139.301 157.565 139.301C157.953 139.301 158.287 139.441 158.566 139.72C158.846 139.995 158.985 140.326 158.985 140.714C158.985 140.975 158.919 141.214 158.787 141.432C158.659 141.645 158.488 141.815 158.275 141.943C158.062 142.071 157.825 142.135 157.565 142.135Z" fill="black"/>
<path d="M40.1777 106.295C40.1777 104.391 41.7695 103.141 44.2109 103.141C46.5352 103.141 48.0586 104.254 48.2344 106.1H46.3594C46.1836 105.23 45.3535 104.693 44.1816 104.693C42.9316 104.693 42.1211 105.279 42.1211 106.158C42.1211 106.92 42.6387 107.34 43.8789 107.613L45.4219 107.955C47.5215 108.424 48.4688 109.322 48.4688 110.885C48.4688 112.906 46.7988 114.195 44.2012 114.195C41.6914 114.195 40.0703 113.072 39.8945 111.197H41.8672C42.082 112.105 42.9609 112.623 44.25 112.623C45.5879 112.623 46.4473 112.027 46.4473 111.1C46.4473 110.318 45.9688 109.918 44.6797 109.625L43.0879 109.264C41.1445 108.824 40.1777 107.848 40.1777 106.295ZM58.65 111.188H60.525C60.2418 112.975 58.484 114.205 56.1891 114.205C53.2008 114.205 51.4918 112.447 51.4918 109.42V107.799C51.4918 104.996 53.318 103.15 56.0816 103.15C58.8648 103.15 60.5543 104.986 60.5543 108.014V109.166H53.4156V109.645C53.4156 111.441 54.4996 112.594 56.1793 112.594C57.4391 112.594 58.3863 112.057 58.65 111.188ZM56.0621 104.752C54.4117 104.752 53.4156 105.885 53.4156 107.789H58.6305C58.6305 105.895 57.6734 104.752 56.0621 104.752ZM66.5266 114.176C64.4953 114.176 63.1477 112.896 63.1477 110.973C63.1477 109.078 64.5148 107.965 66.9953 107.818L69.7883 107.672V106.734C69.7883 105.514 69.0266 104.83 67.6594 104.83C66.5266 104.83 65.716 105.318 65.4621 106.158H63.548C63.7434 104.4 65.4133 103.209 67.6984 103.209C70.2668 103.209 71.7316 104.498 71.7316 106.734V114.01H69.8664V112.457H69.6809C69.173 113.551 68.0305 114.176 66.5266 114.176ZM67.132 112.545C68.6555 112.545 69.7883 111.539 69.7883 110.182V109.059L67.259 109.186C65.843 109.264 65.1008 109.85 65.1008 110.885C65.1008 111.91 65.882 112.545 67.132 112.545ZM84.6766 106.041V114H82.9578V106.646C82.9578 105.504 82.5086 104.889 81.7078 104.889C80.868 104.889 80.3406 105.611 80.3406 106.783V114H78.6316V106.637C78.6316 105.494 78.1922 104.889 77.3816 104.889C76.5223 104.889 75.9852 105.611 75.9852 106.783V114H74.2664V103.355H75.9949V104.898H76.2098C76.4637 103.795 77.2156 103.15 78.2313 103.15C79.2273 103.15 79.9207 103.775 80.1453 104.859H80.3602C80.6141 103.805 81.4344 103.15 82.4891 103.15C83.9246 103.15 84.6766 104.156 84.6766 106.041ZM95.9027 114H86.9672V112.418H90.5316V100.797H87.0453V99.2051H92.4848V112.418H95.9027V114ZM105.703 111.188H107.578C107.295 112.975 105.537 114.205 103.242 114.205C100.254 114.205 98.5449 112.447 98.5449 109.42V107.799C98.5449 104.996 100.371 103.15 103.135 103.15C105.918 103.15 107.607 104.986 107.607 108.014V109.166H100.469V109.645C100.469 111.441 101.553 112.594 103.232 112.594C104.492 112.594 105.439 112.057 105.703 111.188ZM103.115 104.752C101.465 104.752 100.469 105.885 100.469 107.789H105.684C105.684 105.895 104.727 104.752 103.115 104.752ZM110.757 106.295C110.757 104.391 112.349 103.141 114.791 103.141C117.115 103.141 118.638 104.254 118.814 106.1H116.939C116.763 105.23 115.933 104.693 114.761 104.693C113.511 104.693 112.701 105.279 112.701 106.158C112.701 106.92 113.218 107.34 114.459 107.613L116.002 107.955C118.101 108.424 119.048 109.322 119.048 110.885C119.048 112.906 117.379 114.195 114.781 114.195C112.271 114.195 110.65 113.072 110.474 111.197H112.447C112.662 112.105 113.541 112.623 114.83 112.623C116.168 112.623 117.027 112.027 117.027 111.1C117.027 110.318 116.548 109.918 115.259 109.625L113.668 109.264C111.724 108.824 110.757 107.848 110.757 106.295ZM122.521 106.295C122.521 104.391 124.113 103.141 126.554 103.141C128.878 103.141 130.402 104.254 130.577 106.1H128.702C128.527 105.23 127.696 104.693 126.525 104.693C125.275 104.693 124.464 105.279 124.464 106.158C124.464 106.92 124.982 107.34 126.222 107.613L127.765 107.955C129.864 108.424 130.812 109.322 130.812 110.885C130.812 112.906 129.142 114.195 126.544 114.195C124.034 114.195 122.413 113.072 122.238 111.197H124.21C124.425 112.105 125.304 112.623 126.593 112.623C127.931 112.623 128.79 112.027 128.79 111.1C128.79 110.318 128.312 109.918 127.023 109.625L125.431 109.264C123.488 108.824 122.521 107.848 122.521 106.295ZM137.448 117.291H135.651L136.813 110.826H139.264L137.448 117.291ZM152.756 111.188H154.631C154.348 112.975 152.59 114.205 150.295 114.205C147.307 114.205 145.598 112.447 145.598 109.42V107.799C145.598 104.996 147.424 103.15 150.188 103.15C152.971 103.15 154.661 104.986 154.661 108.014V109.166H147.522V109.645C147.522 111.441 148.606 112.594 150.286 112.594C151.545 112.594 152.493 112.057 152.756 111.188ZM150.168 104.752C148.518 104.752 147.522 105.885 147.522 107.789H152.737C152.737 105.895 151.78 104.752 150.168 104.752ZM157.342 114V103.355H159.236V105.211H159.373C159.93 103.893 161.131 103.15 162.723 103.15C165.037 103.15 166.287 104.537 166.287 107.096V114H164.324V107.584C164.324 105.758 163.592 104.898 162.02 104.898C160.389 104.898 159.295 106.041 159.295 107.76V114H157.342ZM174.925 100.865C174.046 100.865 173.412 100.26 173.412 99.4199C173.412 98.5703 174.046 97.9648 174.925 97.9648C175.795 97.9648 176.429 98.5703 176.429 99.4199C176.429 100.26 175.795 100.865 174.925 100.865ZM176.019 103.355V113.844C176.019 116.324 174.828 117.291 171.81 117.291C171.195 117.291 169.759 117.271 169.183 117.223V115.514C169.603 115.553 171.205 115.572 171.742 115.572C173.529 115.572 174.105 115.104 174.105 113.707V104.938H169.388V103.355H176.019ZM185.341 114.205C182.47 114.205 180.644 112.369 180.644 109.488V107.877C180.644 104.986 182.47 103.16 185.341 103.16C188.212 103.16 190.038 104.986 190.038 107.877V109.488C190.038 112.369 188.212 114.205 185.341 114.205ZM185.341 104.82C183.642 104.82 182.577 106.041 182.577 108.014V109.352C182.577 111.324 183.642 112.545 185.341 112.545C187.04 112.545 188.105 111.324 188.105 109.352V108.014C188.105 106.041 187.04 104.82 185.341 104.82ZM194.067 117.809C193.764 117.809 193.393 117.789 193.266 117.779V116.129C193.374 116.148 193.696 116.158 193.852 116.158C194.878 116.158 195.434 115.729 195.825 114.605L195.991 114.078L192.114 103.355H194.262L197.065 112.066H197.202L199.985 103.355H202.065L198.159 114.322C197.231 116.969 196.235 117.809 194.067 117.809ZM207.686 114.176C205.655 114.176 204.307 112.896 204.307 110.973C204.307 109.078 205.674 107.965 208.155 107.818L210.948 107.672V106.734C210.948 105.514 210.186 104.83 208.819 104.83C207.686 104.83 206.875 105.318 206.621 106.158H204.707C204.903 104.4 206.573 103.209 208.858 103.209C211.426 103.209 212.891 104.498 212.891 106.734V114.01H211.026V112.457H210.84C210.332 113.551 209.19 114.176 207.686 114.176ZM208.291 112.545C209.815 112.545 210.948 111.539 210.948 110.182V109.059L208.418 109.186C207.002 109.264 206.26 109.85 206.26 110.885C206.26 111.91 207.041 112.545 208.291 112.545ZM221.451 114.176C219.918 114.176 218.824 113.521 218.326 112.32H218.141V114H216.168V99.2051H218.18V105.045H218.375C218.805 103.854 219.918 103.18 221.451 103.18C223.902 103.18 225.465 104.928 225.465 107.711V109.645C225.465 112.428 223.902 114.176 221.451 114.176ZM220.807 112.438C222.447 112.438 223.482 111.285 223.482 109.459V107.867C223.482 106.041 222.447 104.879 220.807 104.879C219.176 104.879 218.131 106.031 218.131 107.867V109.459C218.131 111.285 219.176 112.438 220.807 112.438ZM237.062 114H228.127V112.418H231.691V100.797H228.205V99.2051H233.644V112.418H237.062V114ZM246.863 111.188H248.738C248.454 112.975 246.696 114.205 244.402 114.205C241.413 114.205 239.704 112.447 239.704 109.42V107.799C239.704 104.996 241.53 103.15 244.294 103.15C247.077 103.15 248.767 104.986 248.767 108.014V109.166H241.628V109.645C241.628 111.441 242.712 112.594 244.392 112.594C245.652 112.594 246.599 112.057 246.863 111.188ZM244.275 104.752C242.624 104.752 241.628 105.885 241.628 107.789H246.843C246.843 105.895 245.886 104.752 244.275 104.752Z" fill="#22C368"/>
<rect x="38.5" y="235.5" width="84" height="26" rx="13" fill="white" fill-opacity="0.3" style="mix-blend-mode:screen"/>
<rect x="38.5" y="235.5" width="84" height="26" rx="13" stroke="#22C368"/>
<path d="M51.0213 243.545V253H49.5948V243.545H51.0213ZM54.1082 248.79V253H52.7279V245.909H54.0528V247.063H54.1405C54.3036 246.688 54.5591 246.386 54.9068 246.158C55.2577 245.931 55.6993 245.817 56.2318 245.817C56.715 245.817 57.1381 245.918 57.5013 246.121C57.8645 246.321 58.1461 246.62 58.3461 247.017C58.5462 247.414 58.6462 247.905 58.6462 248.49V253H57.2659V248.656C57.2659 248.142 57.132 247.74 56.8642 247.451C56.5965 247.159 56.2287 247.012 55.7609 247.012C55.4408 247.012 55.1561 247.082 54.9068 247.22C54.6606 247.359 54.4652 247.562 54.3206 247.83C54.179 248.094 54.1082 248.414 54.1082 248.79ZM63.5474 245.909V247.017H59.6742V245.909H63.5474ZM60.7129 244.21H62.0932V250.918C62.0932 251.186 62.1332 251.387 62.2133 251.523C62.2933 251.655 62.3964 251.746 62.5226 251.795C62.6518 251.841 62.7919 251.864 62.9427 251.864C63.0535 251.864 63.1504 251.857 63.2335 251.841C63.3166 251.826 63.3812 251.814 63.4274 251.804L63.6767 252.945C63.5967 252.975 63.4828 253.006 63.3351 253.037C63.1873 253.071 63.0027 253.089 62.7811 253.092C62.4179 253.098 62.0794 253.034 61.7655 252.898C61.4515 252.763 61.1976 252.554 61.0037 252.271C60.8098 251.987 60.7129 251.632 60.7129 251.204V244.21ZM67.7943 253.143C67.0956 253.143 66.4939 252.994 65.9892 252.695C65.4876 252.394 65.0998 251.971 64.8259 251.426C64.555 250.878 64.4196 250.236 64.4196 249.501C64.4196 248.774 64.555 248.134 64.8259 247.58C65.0998 247.026 65.4814 246.594 65.9707 246.283C66.4632 245.972 67.0387 245.817 67.6973 245.817C68.0974 245.817 68.4852 245.883 68.8607 246.015C69.2361 246.148 69.5731 246.355 69.8717 246.638C70.1702 246.922 70.4056 247.289 70.578 247.742C70.7503 248.191 70.8365 248.737 70.8365 249.381V249.87H65.1998V248.836H69.4839C69.4839 248.473 69.41 248.151 69.2623 247.871C69.1146 247.588 68.9068 247.365 68.6391 247.202C68.3744 247.039 68.0635 246.957 67.7065 246.957C67.3188 246.957 66.9802 247.052 66.6909 247.243C66.4047 247.431 66.1831 247.677 66.0261 247.982C65.8723 248.283 65.7953 248.611 65.7953 248.965V249.773C65.7953 250.247 65.8784 250.65 66.0446 250.983C66.2139 251.315 66.4493 251.569 66.7509 251.744C67.0525 251.917 67.4049 252.003 67.8081 252.003C68.0697 252.003 68.3082 251.966 68.5237 251.892C68.7391 251.815 68.9253 251.701 69.0823 251.55C69.2392 251.4 69.3592 251.213 69.4423 250.992L70.7488 251.227C70.6442 251.612 70.4564 251.949 70.1856 252.238C69.9178 252.525 69.5808 252.748 69.1746 252.908C68.7714 253.065 68.3113 253.143 67.7943 253.143ZM72.108 253V245.909H73.4422V247.036H73.5161C73.6453 246.654 73.8731 246.354 74.1993 246.135C74.5286 245.914 74.901 245.803 75.3165 245.803C75.4027 245.803 75.5042 245.806 75.6212 245.812C75.7412 245.818 75.8351 245.826 75.9028 245.835V247.156C75.8474 247.14 75.7489 247.123 75.6073 247.105C75.4657 247.083 75.3242 247.072 75.1826 247.072C74.8564 247.072 74.5655 247.142 74.3101 247.28C74.0577 247.416 73.8577 247.605 73.7099 247.848C73.5622 248.088 73.4884 248.362 73.4884 248.67V253H72.108ZM78.8374 253.157C78.388 253.157 77.9818 253.074 77.6186 252.908C77.2555 252.738 76.9677 252.494 76.7553 252.174C76.5461 251.854 76.4414 251.461 76.4414 250.996C76.4414 250.596 76.5184 250.267 76.6722 250.009C76.8261 249.75 77.0339 249.545 77.2955 249.395C77.5571 249.244 77.8494 249.13 78.1726 249.053C78.4958 248.976 78.8251 248.917 79.1605 248.877C79.5852 248.828 79.9299 248.788 80.1946 248.757C80.4593 248.724 80.6517 248.67 80.7717 248.596C80.8917 248.522 80.9517 248.402 80.9517 248.236V248.203C80.9517 247.8 80.8378 247.488 80.6101 247.266C80.3854 247.045 80.05 246.934 79.6037 246.934C79.139 246.934 78.7727 247.037 78.505 247.243C78.2403 247.446 78.0572 247.673 77.9556 247.922L76.6584 247.626C76.8123 247.196 77.0369 246.848 77.3324 246.583C77.6309 246.315 77.9741 246.121 78.3619 246.001C78.7497 245.878 79.1575 245.817 79.5852 245.817C79.8684 245.817 80.1685 245.851 80.4855 245.918C80.8055 245.983 81.1041 246.103 81.3811 246.278C81.6611 246.454 81.8904 246.705 82.0689 247.031C82.2474 247.354 82.3367 247.774 82.3367 248.291V253H80.9887V252.031H80.9333C80.844 252.209 80.7101 252.384 80.5316 252.557C80.3531 252.729 80.1238 252.872 79.8438 252.986C79.5637 253.1 79.2282 253.157 78.8374 253.157ZM79.1374 252.049C79.5191 252.049 79.8453 251.974 80.1161 251.823C80.3901 251.672 80.5978 251.475 80.7394 251.232C80.884 250.986 80.9563 250.723 80.9563 250.442V249.528C80.9071 249.578 80.8117 249.624 80.6701 249.667C80.5316 249.707 80.3731 249.742 80.1946 249.773C80.0161 249.801 79.8422 249.827 79.673 249.852C79.5037 249.873 79.3621 249.892 79.2482 249.907C78.9805 249.941 78.7358 249.998 78.5142 250.078C78.2957 250.158 78.1203 250.273 77.9879 250.424C77.8587 250.572 77.7941 250.769 77.7941 251.015C77.7941 251.357 77.9202 251.615 78.1726 251.79C78.425 251.963 78.7466 252.049 79.1374 252.049ZM86.902 253.143C86.2157 253.143 85.6248 252.988 85.1293 252.677C84.6369 252.363 84.2583 251.931 83.9937 251.38C83.729 250.829 83.5966 250.198 83.5966 249.487C83.5966 248.767 83.7321 248.131 84.0029 247.58C84.2737 247.026 84.6553 246.594 85.1478 246.283C85.6402 245.972 86.2203 245.817 86.8882 245.817C87.4268 245.817 87.9069 245.917 88.3285 246.117C88.7502 246.314 89.0902 246.591 89.3488 246.948C89.6104 247.305 89.7658 247.722 89.815 248.199H88.4716C88.3978 247.866 88.2285 247.58 87.9638 247.34C87.7022 247.1 87.3514 246.98 86.9113 246.98C86.5266 246.98 86.1896 247.082 85.9003 247.285C85.614 247.485 85.3909 247.771 85.2309 248.143C85.0708 248.513 84.9908 248.95 84.9908 249.455C84.9908 249.972 85.0693 250.418 85.2263 250.793C85.3832 251.169 85.6048 251.46 85.891 251.666C86.1803 251.872 86.5204 251.975 86.9113 251.975C87.1729 251.975 87.4098 251.927 87.6222 251.832C87.8376 251.734 88.0177 251.594 88.1623 251.412C88.3101 251.23 88.4132 251.012 88.4716 250.756H89.815C89.7658 251.215 89.6165 251.624 89.3672 251.984C89.1179 252.344 88.784 252.628 88.3655 252.834C87.95 253.04 87.4622 253.143 86.902 253.143ZM94.3412 245.909V247.017H90.4679V245.909H94.3412ZM91.5067 244.21H92.887V250.918C92.887 251.186 92.927 251.387 93.007 251.523C93.087 251.655 93.1901 251.746 93.3163 251.795C93.4456 251.841 93.5856 251.864 93.7364 251.864C93.8472 251.864 93.9442 251.857 94.0272 251.841C94.1103 251.826 94.175 251.814 94.2211 251.804L94.4704 252.945C94.3904 252.975 94.2765 253.006 94.1288 253.037C93.9811 253.071 93.7964 253.089 93.5748 253.092C93.2117 253.098 92.8731 253.034 92.5592 252.898C92.2453 252.763 91.9914 252.554 91.7975 252.271C91.6036 251.987 91.5067 251.632 91.5067 251.204V244.21ZM95.6081 253V245.909H96.9884V253H95.6081ZM96.3052 244.815C96.0651 244.815 95.8589 244.735 95.6865 244.575C95.5173 244.412 95.4326 244.218 95.4326 243.993C95.4326 243.766 95.5173 243.572 95.6865 243.412C95.8589 243.248 96.0651 243.167 96.3052 243.167C96.5452 243.167 96.7499 243.248 96.9191 243.412C97.0915 243.572 97.1777 243.766 97.1777 243.993C97.1777 244.218 97.0915 244.412 96.9191 244.575C96.7499 244.735 96.5452 244.815 96.3052 244.815ZM101.572 253.143C100.907 253.143 100.327 252.991 99.8318 252.686C99.3363 252.381 98.9516 251.955 98.6777 251.407C98.4038 250.859 98.2668 250.219 98.2668 249.487C98.2668 248.751 98.4038 248.108 98.6777 247.557C98.9516 247.006 99.3363 246.578 99.8318 246.274C100.327 245.969 100.907 245.817 101.572 245.817C102.237 245.817 102.817 245.969 103.313 246.274C103.808 246.578 104.193 247.006 104.467 247.557C104.741 248.108 104.878 248.751 104.878 249.487C104.878 250.219 104.741 250.859 104.467 251.407C104.193 251.955 103.808 252.381 103.313 252.686C102.817 252.991 102.237 253.143 101.572 253.143ZM101.577 251.984C102.008 251.984 102.365 251.871 102.648 251.643C102.931 251.415 103.14 251.112 103.276 250.733C103.414 250.355 103.483 249.938 103.483 249.482C103.483 249.03 103.414 248.614 103.276 248.236C103.14 247.854 102.931 247.548 102.648 247.317C102.365 247.086 102.008 246.971 101.577 246.971C101.143 246.971 100.783 247.086 100.497 247.317C100.213 247.548 100.003 247.854 99.8641 248.236C99.7287 248.614 99.661 249.03 99.661 249.482C99.661 249.938 99.7287 250.355 99.8641 250.733C100.003 251.112 100.213 251.415 100.497 251.643C100.783 251.871 101.143 251.984 101.577 251.984ZM107.539 248.79V253H106.158V245.909H107.483V247.063H107.571C107.734 246.688 107.99 246.386 108.337 246.158C108.688 245.931 109.13 245.817 109.662 245.817C110.145 245.817 110.569 245.918 110.932 246.121C111.295 246.321 111.577 246.62 111.777 247.017C111.977 247.414 112.077 247.905 112.077 248.49V253H110.696V248.656C110.696 248.142 110.563 247.74 110.295 247.451C110.027 247.159 109.659 247.012 109.191 247.012C108.871 247.012 108.587 247.082 108.337 247.22C108.091 247.359 107.896 247.562 107.751 247.83C107.609 248.094 107.539 248.414 107.539 248.79Z" fill="#22C368"/>
<rect x="38.5" y="270.5" width="91" height="26" rx="13" fill="white" fill-opacity="0.3" style="mix-blend-mode:screen"/>
<rect x="38.5" y="270.5" width="91" height="26" rx="13" stroke="#22C368"/>
<path d="M52.7746 288H49.7139V278.545H52.8716C53.7979 278.545 54.5935 278.735 55.2583 279.113C55.9231 279.489 56.4324 280.029 56.7863 280.734C57.1434 281.435 57.3219 282.277 57.3219 283.259C57.3219 284.244 57.1418 285.09 56.7817 285.798C56.4247 286.506 55.9077 287.051 55.2306 287.432C54.5535 287.811 53.7349 288 52.7746 288ZM51.1404 286.754H52.6961C53.4163 286.754 54.0149 286.618 54.492 286.347C54.969 286.073 55.326 285.678 55.563 285.161C55.8 284.641 55.9184 284.007 55.9184 283.259C55.9184 282.517 55.8 281.888 55.563 281.371C55.3291 280.854 54.9798 280.461 54.515 280.194C54.0503 279.926 53.4733 279.792 52.7839 279.792H51.1404V286.754ZM60.7885 288.157C60.3392 288.157 59.9329 288.074 59.5698 287.908C59.2066 287.738 58.9188 287.494 58.7065 287.174C58.4972 286.854 58.3926 286.461 58.3926 285.996C58.3926 285.596 58.4695 285.267 58.6234 285.009C58.7773 284.75 58.985 284.545 59.2466 284.395C59.5082 284.244 59.8006 284.13 60.1237 284.053C60.4469 283.976 60.7762 283.917 61.1117 283.877C61.5364 283.828 61.8811 283.788 62.1458 283.757C62.4104 283.724 62.6028 283.67 62.7228 283.596C62.8428 283.522 62.9029 283.402 62.9029 283.236V283.203C62.9029 282.8 62.789 282.488 62.5612 282.266C62.3366 282.045 62.0011 281.934 61.5548 281.934C61.0901 281.934 60.7239 282.037 60.4561 282.243C60.1914 282.446 60.0083 282.673 59.9068 282.922L58.6095 282.626C58.7634 282.196 58.9881 281.848 59.2835 281.583C59.5821 281.315 59.9252 281.121 60.313 281.001C60.7008 280.878 61.1086 280.817 61.5364 280.817C61.8195 280.817 62.1196 280.851 62.4366 280.918C62.7567 280.983 63.0552 281.103 63.3322 281.278C63.6123 281.454 63.8415 281.705 64.02 282.031C64.1985 282.354 64.2878 282.774 64.2878 283.291V288H62.9398V287.031H62.8844C62.7951 287.209 62.6613 287.384 62.4828 287.557C62.3043 287.729 62.075 287.872 61.7949 287.986C61.5148 288.1 61.1794 288.157 60.7885 288.157ZM61.0886 287.049C61.4702 287.049 61.7964 286.974 62.0673 286.823C62.3412 286.672 62.5489 286.475 62.6905 286.232C62.8351 285.986 62.9075 285.723 62.9075 285.442V284.528C62.8582 284.578 62.7628 284.624 62.6212 284.667C62.4828 284.707 62.3243 284.742 62.1458 284.773C61.9672 284.801 61.7934 284.827 61.6241 284.852C61.4548 284.873 61.3132 284.892 61.1994 284.907C60.9316 284.941 60.6869 284.998 60.4654 285.078C60.2468 285.158 60.0714 285.273 59.9391 285.424C59.8098 285.572 59.7452 285.769 59.7452 286.015C59.7452 286.357 59.8714 286.615 60.1237 286.79C60.3761 286.963 60.6977 287.049 61.0886 287.049ZM69.1763 280.909V282.017H65.3031V280.909H69.1763ZM66.3418 279.21H67.7221V285.918C67.7221 286.186 67.7621 286.387 67.8422 286.523C67.9222 286.655 68.0253 286.746 68.1515 286.795C68.2807 286.841 68.4208 286.864 68.5716 286.864C68.6824 286.864 68.7793 286.857 68.8624 286.841C68.9455 286.826 69.0101 286.814 69.0563 286.804L69.3056 287.945C69.2256 287.975 69.1117 288.006 68.964 288.037C68.8162 288.071 68.6316 288.089 68.41 288.092C68.0468 288.098 67.7083 288.034 67.3944 287.898C67.0804 287.763 66.8265 287.554 66.6326 287.271C66.4388 286.987 66.3418 286.632 66.3418 286.204V279.21ZM72.5068 288.157C72.0575 288.157 71.6512 288.074 71.288 287.908C70.9249 287.738 70.6371 287.494 70.4248 287.174C70.2155 286.854 70.1108 286.461 70.1108 285.996C70.1108 285.596 70.1878 285.267 70.3417 285.009C70.4955 284.75 70.7033 284.545 70.9649 284.395C71.2265 284.244 71.5189 284.13 71.842 284.053C72.1652 283.976 72.4945 283.917 72.8299 283.877C73.2547 283.828 73.5994 283.788 73.864 283.757C74.1287 283.724 74.3211 283.67 74.4411 283.596C74.5611 283.522 74.6211 283.402 74.6211 283.236V283.203C74.6211 282.8 74.5073 282.488 74.2795 282.266C74.0548 282.045 73.7194 281.934 73.2731 281.934C72.8084 281.934 72.4422 282.037 72.1744 282.243C71.9097 282.446 71.7266 282.673 71.625 282.922L70.3278 282.626C70.4817 282.196 70.7064 281.848 71.0018 281.583C71.3003 281.315 71.6435 281.121 72.0313 281.001C72.4191 280.878 72.8269 280.817 73.2547 280.817C73.5378 280.817 73.8379 280.851 74.1549 280.918C74.4749 280.983 74.7735 281.103 75.0505 281.278C75.3305 281.454 75.5598 281.705 75.7383 282.031C75.9168 282.354 76.0061 282.774 76.0061 283.291V288H74.6581V287.031H74.6027C74.5134 287.209 74.3795 287.384 74.201 287.557C74.0225 287.729 73.7932 287.872 73.5132 287.986C73.2331 288.1 72.8976 288.157 72.5068 288.157ZM72.8069 287.049C73.1885 287.049 73.5147 286.974 73.7856 286.823C74.0595 286.672 74.2672 286.475 74.4088 286.232C74.5534 285.986 74.6258 285.723 74.6258 285.442V284.528C74.5765 284.578 74.4811 284.624 74.3395 284.667C74.201 284.707 74.0425 284.742 73.864 284.773C73.6855 284.801 73.5116 284.827 73.3424 284.852C73.1731 284.873 73.0315 284.892 72.9177 284.907C72.6499 284.941 72.4052 284.998 72.1836 285.078C71.9651 285.158 71.7897 285.273 71.6574 285.424C71.5281 285.572 71.4635 285.769 71.4635 286.015C71.4635 286.357 71.5896 286.615 71.842 286.79C72.0944 286.963 72.416 287.049 72.8069 287.049ZM81.7625 283.407V284.602H77.5707V283.407H81.7625ZM85.9966 288.138C85.4242 288.138 84.9133 287.992 84.464 287.7C84.0177 287.404 83.6669 286.984 83.4114 286.44C83.159 285.892 83.0329 285.235 83.0329 284.468C83.0329 283.702 83.1606 283.047 83.416 282.502C83.6746 281.957 84.0285 281.54 84.4778 281.251C84.9272 280.961 85.4365 280.817 86.0059 280.817C86.446 280.817 86.7999 280.891 87.0677 281.038C87.3385 281.183 87.5478 281.352 87.6955 281.546C87.8463 281.74 87.9633 281.911 88.0464 282.059H88.1295V278.545H89.5098V288H88.1618V286.897H88.0464C87.9633 287.047 87.8432 287.22 87.6863 287.414C87.5324 287.608 87.32 287.777 87.0492 287.922C86.7784 288.066 86.4275 288.138 85.9966 288.138ZM86.3013 286.961C86.6983 286.961 87.0338 286.857 87.3077 286.647C87.5847 286.435 87.794 286.141 87.9356 285.766C88.0802 285.39 88.1525 284.953 88.1525 284.455C88.1525 283.962 88.0818 283.531 87.9402 283.162C87.7986 282.793 87.5909 282.505 87.317 282.299C87.043 282.092 86.7045 281.989 86.3013 281.989C85.8858 281.989 85.5396 282.097 85.2626 282.312C84.9856 282.528 84.7764 282.822 84.6348 283.194C84.4963 283.567 84.427 283.987 84.427 284.455C84.427 284.929 84.4978 285.355 84.6394 285.733C84.781 286.112 84.9903 286.412 85.2672 286.634C85.5473 286.852 85.892 286.961 86.3013 286.961ZM91.2199 288V280.909H92.554V282.036H92.6279C92.7571 281.654 92.9849 281.354 93.3111 281.135C93.6404 280.914 94.0128 280.803 94.4283 280.803C94.5145 280.803 94.6161 280.806 94.733 280.812C94.853 280.818 94.9469 280.826 95.0146 280.835V282.156C94.9592 282.14 94.8607 282.123 94.7192 282.105C94.5776 282.083 94.436 282.072 94.2944 282.072C93.9682 282.072 93.6774 282.142 93.4219 282.28C93.1696 282.416 92.9695 282.605 92.8218 282.848C92.6741 283.088 92.6002 283.362 92.6002 283.67V288H91.2199ZM95.9491 288V280.909H97.3294V288H95.9491ZM96.6462 279.815C96.4062 279.815 96.2 279.735 96.0276 279.575C95.8583 279.412 95.7737 279.218 95.7737 278.993C95.7737 278.766 95.8583 278.572 96.0276 278.412C96.2 278.248 96.4062 278.167 96.6462 278.167C96.8863 278.167 97.0909 278.248 97.2602 278.412C97.4325 278.572 97.5187 278.766 97.5187 278.993C97.5187 279.218 97.4325 279.412 97.2602 279.575C97.0909 279.735 96.8863 279.815 96.6462 279.815ZM104.992 280.909L102.421 288H100.944L98.3678 280.909H99.8497L101.646 286.366H101.719L103.511 280.909H104.992ZM108.845 288.143C108.146 288.143 107.544 287.994 107.04 287.695C106.538 287.394 106.15 286.971 105.876 286.426C105.605 285.878 105.47 285.236 105.47 284.501C105.47 283.774 105.605 283.134 105.876 282.58C106.15 282.026 106.532 281.594 107.021 281.283C107.514 280.972 108.089 280.817 108.748 280.817C109.148 280.817 109.536 280.883 109.911 281.015C110.286 281.148 110.623 281.355 110.922 281.638C111.221 281.922 111.456 282.289 111.628 282.742C111.801 283.191 111.887 283.737 111.887 284.381V284.87H106.25V283.836H110.534C110.534 283.473 110.46 283.151 110.313 282.871C110.165 282.588 109.957 282.365 109.689 282.202C109.425 282.039 109.114 281.957 108.757 281.957C108.369 281.957 108.031 282.052 107.741 282.243C107.455 282.431 107.233 282.677 107.076 282.982C106.923 283.283 106.846 283.611 106.846 283.965V284.773C106.846 285.247 106.929 285.65 107.095 285.983C107.264 286.315 107.5 286.569 107.801 286.744C108.103 286.917 108.455 287.003 108.858 287.003C109.12 287.003 109.359 286.966 109.574 286.892C109.789 286.815 109.976 286.701 110.133 286.55C110.29 286.4 110.41 286.213 110.493 285.992L111.799 286.227C111.695 286.612 111.507 286.949 111.236 287.238C110.968 287.525 110.631 287.748 110.225 287.908C109.822 288.065 109.362 288.143 108.845 288.143ZM114.539 283.79V288H113.158V280.909H114.483V282.063H114.571C114.734 281.688 114.99 281.386 115.337 281.158C115.688 280.931 116.13 280.817 116.662 280.817C117.145 280.817 117.569 280.918 117.932 281.121C118.295 281.321 118.577 281.62 118.777 282.017C118.977 282.414 119.077 282.905 119.077 283.49V288H117.696V283.656C117.696 283.142 117.563 282.74 117.295 282.451C117.027 282.159 116.659 282.012 116.191 282.012C115.871 282.012 115.587 282.082 115.337 282.22C115.091 282.359 114.896 282.562 114.751 282.83C114.609 283.094 114.539 283.414 114.539 283.79Z" fill="#22C368"/>
<rect x="38.5" y="305.5" width="114" height="26" rx="13" fill="white" fill-opacity="0.3" style="mix-blend-mode:screen"/>
<rect x="38.5" y="305.5" width="114" height="26" rx="13" stroke="#22C368"/>
<path d="M57.6615 313.545H59.0926V319.764C59.0926 320.426 58.9371 321.012 58.6263 321.523C58.3155 322.031 57.8784 322.431 57.3152 322.723C56.752 323.012 56.0919 323.157 55.3348 323.157C54.5807 323.157 53.9221 323.012 53.3589 322.723C52.7957 322.431 52.3587 322.031 52.0478 321.523C51.737 321.012 51.5816 320.426 51.5816 319.764V313.545H53.0081V319.648C53.0081 320.076 53.1019 320.456 53.2897 320.789C53.4805 321.121 53.7498 321.383 54.0975 321.574C54.4453 321.761 54.8577 321.855 55.3348 321.855C55.8149 321.855 56.2288 321.761 56.5766 321.574C56.9274 321.383 57.1952 321.121 57.3799 320.789C57.5676 320.456 57.6615 320.076 57.6615 319.648V313.545ZM61.8991 313.545L64.1611 317.243H64.235L66.4971 313.545H68.1498L65.2045 318.273L68.1682 323H66.5063L64.235 319.353H64.1611L61.8898 323H60.2279L63.2425 318.273L60.2464 313.545H61.8991ZM72.4852 323V313.545H75.8552C76.5907 313.545 77.2001 313.679 77.6833 313.947C78.1665 314.215 78.5281 314.581 78.7682 315.046C79.0082 315.507 79.1283 316.028 79.1283 316.606C79.1283 317.188 79.0067 317.711 78.7636 318.176C78.5235 318.637 78.1603 319.004 77.6741 319.275C77.1909 319.542 76.583 319.676 75.8506 319.676H73.5331V318.467H75.7213C76.186 318.467 76.563 318.387 76.8523 318.227C77.1416 318.063 77.354 317.842 77.4894 317.562C77.6248 317.282 77.6925 316.963 77.6925 316.606C77.6925 316.249 77.6248 315.932 77.4894 315.655C77.354 315.378 77.1401 315.161 76.8477 315.004C76.5584 314.847 76.1768 314.769 75.7028 314.769H73.9116V323H72.4852ZM85.7434 317.64L84.4923 317.862C84.44 317.702 84.3569 317.549 84.243 317.405C84.1322 317.26 83.9814 317.142 83.7906 317.049C83.5998 316.957 83.3613 316.911 83.075 316.911C82.6842 316.911 82.3579 316.999 82.0963 317.174C81.8347 317.346 81.7039 317.569 81.7039 317.843C81.7039 318.08 81.7916 318.271 81.9671 318.416C82.1425 318.56 82.4256 318.679 82.8165 318.771L83.9429 319.03C84.5954 319.181 85.0817 319.413 85.4017 319.727C85.7218 320.041 85.8818 320.449 85.8818 320.95C85.8818 321.375 85.7587 321.754 85.5125 322.086C85.2694 322.415 84.9293 322.674 84.4923 322.862C84.0583 323.049 83.5551 323.143 82.9827 323.143C82.1887 323.143 81.5408 322.974 81.0392 322.635C80.5375 322.294 80.2297 321.809 80.1159 321.181L81.45 320.978C81.5331 321.326 81.7039 321.589 81.9625 321.767C82.221 321.943 82.558 322.031 82.9735 322.031C83.4259 322.031 83.7875 321.937 84.0583 321.749C84.3292 321.558 84.4646 321.326 84.4646 321.052C84.4646 320.83 84.3815 320.644 84.2153 320.493C84.0522 320.342 83.8014 320.229 83.4628 320.152L82.2625 319.888C81.6008 319.738 81.1115 319.498 80.7945 319.168C80.4806 318.839 80.3236 318.422 80.3236 317.917C80.3236 317.499 80.4406 317.132 80.6745 316.819C80.9084 316.505 81.2315 316.26 81.6439 316.085C82.0563 315.906 82.5287 315.817 83.0612 315.817C83.8275 315.817 84.4307 315.983 84.8708 316.315C85.3109 316.645 85.6018 317.086 85.7434 317.64ZM88.012 325.659C87.8058 325.659 87.6181 325.642 87.4488 325.608C87.2796 325.578 87.1534 325.544 87.0703 325.507L87.4027 324.376C87.655 324.443 87.8797 324.473 88.0767 324.463C88.2736 324.454 88.4475 324.38 88.5983 324.242C88.7522 324.103 88.8876 323.877 89.0046 323.563L89.1754 323.092L86.5809 315.909H88.0582L89.854 321.412H89.9279L91.7237 315.909H93.2056L90.2833 323.946C90.1479 324.316 89.9756 324.628 89.7663 324.884C89.557 325.142 89.3077 325.336 89.0184 325.465C88.7291 325.594 88.3937 325.659 88.012 325.659ZM96.9884 323.143C96.3021 323.143 95.7112 322.988 95.2157 322.677C94.7233 322.363 94.3447 321.931 94.0801 321.38C93.8154 320.829 93.683 320.198 93.683 319.487C93.683 318.767 93.8185 318.131 94.0893 317.58C94.3601 317.026 94.7418 316.594 95.2342 316.283C95.7266 315.972 96.3067 315.817 96.9746 315.817C97.5132 315.817 97.9933 315.917 98.4149 316.117C98.8366 316.314 99.1767 316.591 99.4352 316.948C99.6968 317.305 99.8522 317.722 99.9014 318.199H98.558C98.4842 317.866 98.3149 317.58 98.0502 317.34C97.7886 317.1 97.4378 316.98 96.9977 316.98C96.613 316.98 96.276 317.082 95.9867 317.285C95.7004 317.485 95.4773 317.771 95.3173 318.143C95.1572 318.513 95.0772 318.95 95.0772 319.455C95.0772 319.972 95.1557 320.418 95.3127 320.793C95.4696 321.169 95.6912 321.46 95.9774 321.666C96.2667 321.872 96.6068 321.975 96.9977 321.975C97.2593 321.975 97.4963 321.927 97.7086 321.832C97.9241 321.734 98.1041 321.594 98.2487 321.412C98.3965 321.23 98.4996 321.012 98.558 320.756H99.9014C99.8522 321.215 99.7029 321.624 99.4536 321.984C99.2044 322.344 98.8704 322.628 98.4519 322.834C98.0364 323.04 97.5486 323.143 96.9884 323.143ZM102.498 318.79V323H101.118V313.545H102.479V317.063H102.567C102.733 316.682 102.987 316.378 103.329 316.154C103.67 315.929 104.117 315.817 104.668 315.817C105.154 315.817 105.579 315.917 105.942 316.117C106.308 316.317 106.591 316.615 106.791 317.012C106.994 317.406 107.096 317.899 107.096 318.49V323H105.716V318.656C105.716 318.136 105.582 317.733 105.314 317.446C105.046 317.157 104.674 317.012 104.197 317.012C103.871 317.012 103.578 317.082 103.32 317.22C103.064 317.359 102.863 317.562 102.715 317.83C102.57 318.094 102.498 318.414 102.498 318.79ZM111.665 323.143C111 323.143 110.42 322.991 109.924 322.686C109.429 322.381 109.044 321.955 108.77 321.407C108.496 320.859 108.359 320.219 108.359 319.487C108.359 318.751 108.496 318.108 108.77 317.557C109.044 317.006 109.429 316.578 109.924 316.274C110.42 315.969 111 315.817 111.665 315.817C112.33 315.817 112.91 315.969 113.405 316.274C113.901 316.578 114.285 317.006 114.559 317.557C114.833 318.108 114.97 318.751 114.97 319.487C114.97 320.219 114.833 320.859 114.559 321.407C114.285 321.955 113.901 322.381 113.405 322.686C112.91 322.991 112.33 323.143 111.665 323.143ZM111.669 321.984C112.1 321.984 112.457 321.871 112.74 321.643C113.024 321.415 113.233 321.112 113.368 320.733C113.507 320.355 113.576 319.938 113.576 319.482C113.576 319.03 113.507 318.614 113.368 318.236C113.233 317.854 113.024 317.548 112.74 317.317C112.457 317.086 112.1 316.971 111.669 316.971C111.235 316.971 110.875 317.086 110.589 317.317C110.306 317.548 110.095 317.854 109.957 318.236C109.821 318.614 109.754 319.03 109.754 319.482C109.754 319.938 109.821 320.355 109.957 320.733C110.095 321.112 110.306 321.415 110.589 321.643C110.875 321.871 111.235 321.984 111.669 321.984ZM117.631 313.545V323H116.251V313.545H117.631ZM122.215 323.143C121.55 323.143 120.97 322.991 120.475 322.686C119.979 322.381 119.594 321.955 119.321 321.407C119.047 320.859 118.91 320.219 118.91 319.487C118.91 318.751 119.047 318.108 119.321 317.557C119.594 317.006 119.979 316.578 120.475 316.274C120.97 315.969 121.55 315.817 122.215 315.817C122.88 315.817 123.46 315.969 123.955 316.274C124.451 316.578 124.836 317.006 125.11 317.557C125.383 318.108 125.52 318.751 125.52 319.487C125.52 320.219 125.383 320.859 125.11 321.407C124.836 321.955 124.451 322.381 123.955 322.686C123.46 322.991 122.88 323.143 122.215 323.143ZM122.22 321.984C122.651 321.984 123.008 321.871 123.291 321.643C123.574 321.415 123.783 321.112 123.919 320.733C124.057 320.355 124.126 319.938 124.126 319.482C124.126 319.03 124.057 318.614 123.919 318.236C123.783 317.854 123.574 317.548 123.291 317.317C123.008 317.086 122.651 316.971 122.22 316.971C121.786 316.971 121.426 317.086 121.139 317.317C120.856 317.548 120.645 317.854 120.507 318.236C120.372 318.614 120.304 319.03 120.304 319.482C120.304 319.938 120.372 320.355 120.507 320.733C120.645 321.112 120.856 321.415 121.139 321.643C121.426 321.871 121.786 321.984 122.22 321.984ZM129.774 325.807C129.211 325.807 128.726 325.733 128.32 325.585C127.917 325.438 127.588 325.242 127.332 324.999C127.077 324.756 126.886 324.49 126.76 324.2L127.946 323.711C128.029 323.846 128.14 323.989 128.278 324.14C128.42 324.294 128.611 324.425 128.851 324.533C129.094 324.64 129.406 324.694 129.788 324.694C130.311 324.694 130.744 324.567 131.085 324.311C131.427 324.059 131.598 323.656 131.598 323.102V321.707H131.51C131.427 321.858 131.307 322.026 131.15 322.211C130.996 322.395 130.784 322.555 130.513 322.691C130.242 322.826 129.89 322.894 129.456 322.894C128.896 322.894 128.391 322.763 127.941 322.501C127.495 322.237 127.141 321.847 126.88 321.333C126.621 320.816 126.492 320.181 126.492 319.427C126.492 318.673 126.62 318.027 126.875 317.488C127.134 316.949 127.488 316.537 127.937 316.251C128.386 315.961 128.896 315.817 129.465 315.817C129.905 315.817 130.26 315.891 130.531 316.038C130.802 316.183 131.013 316.352 131.164 316.546C131.318 316.74 131.436 316.911 131.519 317.059H131.621V315.909H132.973V323.157C132.973 323.766 132.832 324.266 132.549 324.657C132.266 325.048 131.882 325.337 131.399 325.525C130.919 325.713 130.377 325.807 129.774 325.807ZM129.76 321.749C130.157 321.749 130.493 321.657 130.767 321.472C131.044 321.284 131.253 321.016 131.395 320.669C131.539 320.318 131.612 319.898 131.612 319.408C131.612 318.931 131.541 318.511 131.399 318.148C131.258 317.785 131.05 317.502 130.776 317.299C130.502 317.092 130.164 316.989 129.76 316.989C129.345 316.989 128.999 317.097 128.722 317.312C128.445 317.525 128.235 317.814 128.094 318.18C127.955 318.547 127.886 318.956 127.886 319.408C127.886 319.873 127.957 320.281 128.098 320.632C128.24 320.983 128.449 321.257 128.726 321.453C129.006 321.65 129.351 321.749 129.76 321.749ZM135.437 325.659C135.231 325.659 135.043 325.642 134.874 325.608C134.705 325.578 134.578 325.544 134.495 325.507L134.828 324.376C135.08 324.443 135.305 324.473 135.502 324.463C135.699 324.454 135.873 324.38 136.023 324.242C136.177 324.103 136.313 323.877 136.43 323.563L136.6 323.092L134.006 315.909H135.483L137.279 321.412H137.353L139.149 315.909H140.631L137.708 323.946C137.573 324.316 137.401 324.628 137.191 324.884C136.982 325.142 136.733 325.336 136.444 325.465C136.154 325.594 135.819 325.659 135.437 325.659Z" fill="#22C368"/>
</g>
<defs>
<radialGradient id="paint0_radial_18_134" cx="0" cy="0" r="1" gradientUnits="userSpaceOnUse" gradientTransform="translate(218.385 296.455) rotate(-151.837) scale(56.1471 58.8338)">
<stop stop-color="#36D97D" stop-opacity="0.7"/>
<stop offset="1" stop-color="#36D97D" stop-opacity="0"/>
</radialGradient>
<radialGradient id="paint1_radial_18_134" cx="0" cy="0" r="1" gradientUnits="userSpaceOnUse" gradientTransform="translate(1.88468 403.955) rotate(-54.2222) scale(194.135 148.706)">
<stop stop-color="#36D97D"/>
<stop offset="1" stop-color="#36D97D" stop-opacity="0"/>
</radialGradient>
<radialGradient id="paint2_radial_18_134" cx="0" cy="0" r="1" gradientUnits="userSpaceOnUse" gradientTransform="translate(246.885 359.955) rotate(-180) scale(188.5 174)">
<stop stop-color="#36D97D"/>
<stop offset="1" stop-color="#36D97D" stop-opacity="0"/>
</radialGradient>
</defs>
</svg>
