<svg width="44" height="44" viewBox="0 0 44 44" fill="none" xmlns="http://www.w3.org/2000/svg">
<path d="M18.3334 17.4165C18.3334 18.9345 17.5121 20.1665 16.5001 20.1665C15.4881 20.1665 14.6667 18.9345 14.6667 17.4165C14.6667 15.8985 15.4881 14.6665 16.5001 14.6665C17.5121 14.6665 18.3334 15.8985 18.3334 17.4165ZM27.5001 20.1665C28.5121 20.1665 29.3334 18.9345 29.3334 17.4165C29.3334 15.8985 28.5121 14.6665 27.5001 14.6665C26.4881 14.6665 25.6667 15.8985 25.6667 17.4165C25.6667 18.9345 26.4881 20.1665 27.5001 20.1665ZM17.3196 26.3962C17.175 26.2837 17.0094 26.2012 16.8325 26.1536C16.6557 26.106 16.471 26.0942 16.2895 26.1189C16.108 26.1436 15.9333 26.2044 15.7756 26.2976C15.6179 26.3908 15.4804 26.5145 15.3712 26.6616C15.262 26.8087 15.1833 26.9761 15.1397 27.154C15.0961 27.3319 15.0885 27.5168 15.1173 27.6977C15.1461 27.8786 15.2108 28.0519 15.3075 28.2074C15.4042 28.363 15.5311 28.4976 15.6806 28.6035C17.5055 29.9672 19.7219 30.7054 22.0001 30.7082C24.2783 30.7054 26.4947 29.9672 28.3196 28.6035C28.4691 28.4976 28.5959 28.363 28.6927 28.2074C28.7894 28.0519 28.8541 27.8786 28.8829 27.6977C28.9117 27.5168 28.9041 27.3319 28.8605 27.154C28.8169 26.9761 28.7382 26.8087 28.629 26.6616C28.5198 26.5145 28.3823 26.3908 28.2246 26.2976C28.0669 26.2044 27.8921 26.1436 27.7106 26.1189C27.5291 26.0942 27.3445 26.106 27.1676 26.1536C26.9907 26.2012 26.8251 26.2837 26.6806 26.3962C25.3296 27.4078 23.6878 27.9557 22.0001 27.9582C20.3123 27.9557 18.6706 27.4078 17.3196 26.3962Z" fill="#A14CF6"/>
<path fill-rule="evenodd" clip-rule="evenodd" d="M22.0001 2.2915C11.0771 2.2915 2.29175 11.4013 2.29175 22.5498V36.1587C2.29175 39.5448 5.79708 41.8842 8.87891 40.2983C9.49102 39.9819 10.1777 39.8381 10.8653 39.8824C11.553 39.9266 12.2156 40.1572 12.7821 40.5495C13.8752 41.304 15.1719 41.7081 16.5001 41.7081C17.8283 41.7081 19.125 41.304 20.2181 40.5495L20.8652 40.1058C21.1984 39.8744 21.5944 39.7504 22.0001 39.7504C22.4058 39.7504 22.8017 39.8744 23.1349 40.1058L23.7821 40.5495C24.8752 41.304 26.1719 41.7081 27.5001 41.7081C28.8283 41.7081 30.125 41.304 31.2181 40.5495C31.7848 40.1569 32.4477 39.9261 33.1357 39.8818C33.8237 39.8376 34.5108 39.9816 35.1231 40.2983C38.2031 41.8842 41.7084 39.543 41.7084 36.1587V22.5517C41.7084 11.4013 32.9231 2.2915 22.0001 2.2915ZM5.04175 22.5498C5.04175 12.8423 12.6721 5.0415 22.0001 5.0415C31.3281 5.0415 38.9584 12.8423 38.9584 22.5498V36.1587C38.9584 37.6217 37.5101 38.4357 36.3807 37.8527C35.3268 37.309 34.145 37.0619 32.9615 37.1378C31.7781 37.2137 30.6375 37.6097 29.6616 38.2835C29.0266 38.7235 28.2726 38.9592 27.5001 38.9592C26.7276 38.9592 25.9735 38.7235 25.3386 38.2835L24.6914 37.838C23.9001 37.292 22.9615 36.9997 22.0001 36.9997C21.0387 36.9997 20.1001 37.292 19.3087 37.838L18.6616 38.2817C18.0266 38.7216 17.2726 38.9574 16.5001 38.9574C15.7276 38.9574 14.9735 38.7216 14.3386 38.2817C13.3625 37.6082 12.2218 37.2125 11.0384 37.1369C9.85494 37.0614 8.67319 37.3088 7.61942 37.8527C6.48825 38.4357 5.04175 37.6217 5.04175 36.1587V22.5498Z" fill="#A14CF6"/>
</svg>
