<svg width="44" height="44" viewBox="0 0 44 44" fill="none" xmlns="http://www.w3.org/2000/svg">
<path d="M36.982 12.3749H33.5701L25.1991 20.7423C25.4874 21.4771 25.514 22.2887 25.2742 23.0407C25.0345 23.7928 24.5431 24.4393 23.8827 24.8717C23.2223 25.304 22.4332 25.4958 21.6481 25.4147C20.8629 25.3337 20.1296 24.9847 19.5715 24.4266C19.0133 23.8685 18.6644 23.1352 18.5834 22.35C18.5023 21.5649 18.6941 20.7757 19.1264 20.1154C19.5588 19.455 20.2053 18.9636 20.9573 18.7239C21.7094 18.4841 22.521 18.5106 23.2558 18.7989L31.625 10.4298V7.01794C31.6251 6.5614 31.8065 6.12358 32.1291 5.8006L35.3008 2.62894C35.3595 2.56986 35.4332 2.5279 35.5139 2.50755C35.5947 2.4872 35.6794 2.48923 35.7591 2.51344C35.9223 2.5611 36.0433 2.69677 36.0763 2.8636L36.9196 7.0821L41.1363 7.92544C41.3013 7.95844 41.437 8.07944 41.4846 8.2426C41.5087 8.32186 41.5108 8.40617 41.4908 8.48655C41.4708 8.56693 41.4294 8.64039 41.371 8.6991L38.1975 11.8708C37.8749 12.193 37.4379 12.3743 36.982 12.3749Z" fill="#22C368"/>
<path d="M4.8125 22C4.8125 26.5584 6.62332 30.9301 9.8466 34.1534C13.0699 37.3767 17.4416 39.1875 22 39.1875C24.2571 39.1875 26.4921 38.7429 28.5774 37.8792C30.6627 37.0154 32.5574 35.7494 34.1534 34.1534C35.7494 32.5574 37.0154 30.6627 37.8792 28.5774C38.7429 26.4921 39.1875 24.2571 39.1875 22C39.1875 20.3537 38.9565 18.7623 38.5257 17.2572C38.44 16.9116 38.4918 16.5462 38.6701 16.238C38.8483 15.9298 39.1392 15.7028 39.4815 15.6047C39.8237 15.5066 40.1907 15.5451 40.5052 15.7121C40.8196 15.8791 41.0571 16.1615 41.1675 16.5C41.6698 18.249 41.9375 20.0933 41.9375 22C41.9375 33.011 33.011 41.9375 22 41.9375C10.989 41.9375 2.0625 33.011 2.0625 22C2.0625 10.989 10.989 2.06251 22 2.06251C23.8608 2.06068 25.7107 2.31918 27.5 2.83068C27.6745 2.87962 27.8375 2.96256 27.9798 3.07473C28.1221 3.1869 28.2409 3.3261 28.3292 3.48431C28.4175 3.64252 28.4737 3.81663 28.4945 3.99663C28.5153 4.17663 28.5004 4.35897 28.4505 4.53316C28.4006 4.70736 28.3168 4.86998 28.2038 5.01166C28.0909 5.15335 27.951 5.27132 27.7923 5.35878C27.6336 5.44625 27.4592 5.50148 27.2791 5.52132C27.099 5.54115 26.9168 5.52518 26.7428 5.47434C25.2004 5.03408 23.604 4.81132 22 4.81251C17.4416 4.81251 13.0699 6.62333 9.8466 9.84661C6.62332 13.0699 4.8125 17.4416 4.8125 22Z" fill="#22C368"/>
<path d="M13.0626 22.0001C13.0677 23.2144 13.3202 24.4148 13.8048 25.5282C14.2893 26.6416 14.9957 27.6446 15.8808 28.4759C16.766 29.3072 17.8112 29.9493 18.9528 30.3632C20.0944 30.777 21.3083 30.9538 22.5205 30.8828C23.7327 30.8119 24.9177 30.4946 26.0032 29.9503C27.0886 29.4061 28.0518 28.6463 28.8338 27.7174C29.6159 26.7885 30.2004 25.7099 30.5517 24.5476C30.903 23.3852 31.0137 22.1635 30.8771 20.9569C30.8386 20.7126 30.8669 20.4624 30.959 20.2328C31.0511 20.0032 31.2037 19.8028 31.4004 19.6529C31.5971 19.5029 31.8308 19.409 32.0766 19.381C32.3224 19.353 32.5711 19.392 32.7966 19.4939C33.2567 19.6993 33.5666 20.1374 33.6069 20.6398C33.8915 23.0511 33.4179 25.4911 32.2518 27.6208C31.0858 29.7505 29.2852 31.464 27.1003 32.5232C24.9155 33.5823 22.455 33.9345 20.0607 33.5307C17.6665 33.127 15.4576 31.9874 13.7409 30.2703C12.0247 28.555 10.8848 26.3483 10.4793 23.956C10.0737 21.5638 10.4227 19.1046 11.4777 16.9196C12.5327 14.7346 14.2415 12.9321 16.3671 11.762C18.4927 10.5919 20.9297 10.1123 23.3402 10.3896C23.5224 10.4065 23.6995 10.4596 23.8609 10.5458C24.0223 10.632 24.1649 10.7496 24.2803 10.8916C24.3957 11.0337 24.4816 11.1973 24.533 11.373C24.5843 11.5486 24.6001 11.7328 24.5793 11.9146C24.5586 12.0964 24.5017 12.2723 24.4122 12.4319C24.3226 12.5914 24.202 12.7315 24.0576 12.8439C23.9132 12.9563 23.7477 13.0387 23.571 13.0863C23.3943 13.134 23.2099 13.1458 23.0286 13.1213C21.7764 12.9765 20.5079 13.0982 19.3061 13.4783C18.1043 13.8584 16.9965 14.4884 16.0554 15.3268C15.1142 16.1653 14.3611 17.1933 13.8453 18.3434C13.3295 19.4935 13.0627 20.7396 13.0626 22.0001Z" fill="#22C368"/>
</svg>
