<svg width="44" height="44" viewBox="0 0 44 44" fill="none" xmlns="http://www.w3.org/2000/svg">
<path d="M30.8 6.0499C30.8 5.6123 30.9738 5.19261 31.2833 4.88318C31.5927 4.57374 32.0124 4.3999 32.45 4.3999H37.95C38.3876 4.3999 38.8073 4.57374 39.1167 4.88318C39.4262 5.19261 39.6 5.6123 39.6 6.0499V11.5499C39.6 11.9875 39.4262 12.4072 39.1167 12.7166C38.8073 13.0261 38.3876 13.1999 37.95 13.1999C37.5124 13.1999 37.0927 13.0261 36.7833 12.7166C36.4738 12.4072 36.3 11.9875 36.3 11.5499V10.0319L26.466 19.8659C26.1566 20.1749 25.7372 20.3485 25.3 20.3485C24.8627 20.3485 24.4434 20.1749 24.134 19.8659L18.7 14.4319L9.416 23.7159C9.26494 23.878 9.08278 24.008 8.88038 24.0982C8.67798 24.1884 8.45949 24.2369 8.23795 24.2408C8.0164 24.2447 7.79634 24.204 7.59088 24.121C7.38543 24.038 7.19879 23.9145 7.04211 23.7578C6.88543 23.6011 6.76191 23.4145 6.67893 23.209C6.59594 23.0036 6.55519 22.7835 6.55909 22.562C6.563 22.3404 6.6115 22.1219 6.70168 21.9195C6.79186 21.7171 6.92189 21.535 7.084 21.3839L17.534 10.9339C17.8434 10.6249 18.2627 10.4514 18.7 10.4514C19.1372 10.4514 19.5566 10.6249 19.866 10.9339L25.3 16.3679L33.968 7.6999H32.45C32.0124 7.6999 31.5927 7.52606 31.2833 7.21663C30.9738 6.90719 30.8 6.48751 30.8 6.0499ZM8.25 30.7999C8.6876 30.7999 9.10729 30.9737 9.41672 31.2832C9.72616 31.5926 9.9 32.0123 9.9 32.4499V37.9499C9.9 38.3875 9.72616 38.8072 9.41672 39.1166C9.10729 39.4261 8.6876 39.5999 8.25 39.5999C7.81239 39.5999 7.3927 39.4261 7.08327 39.1166C6.77383 38.8072 6.6 38.3875 6.6 37.9499V32.4499C6.6 32.0123 6.77383 31.5926 7.08327 31.2832C7.3927 30.9737 7.81239 30.7999 8.25 30.7999ZM18.7 25.8499C18.7 25.4123 18.5262 24.9926 18.2167 24.6832C17.9073 24.3737 17.4876 24.1999 17.05 24.1999C16.6124 24.1999 16.1927 24.3737 15.8833 24.6832C15.5738 24.9926 15.4 25.4123 15.4 25.8499V37.9499C15.4 38.3875 15.5738 38.8072 15.8833 39.1166C16.1927 39.4261 16.6124 39.5999 17.05 39.5999C17.4876 39.5999 17.9073 39.4261 18.2167 39.1166C18.5262 38.8072 18.7 38.3875 18.7 37.9499V25.8499ZM25.85 28.5999C26.2876 28.5999 26.7073 28.7737 27.0167 29.0832C27.3262 29.3926 27.5 29.8123 27.5 30.2499V37.9499C27.5 38.3875 27.3262 38.8072 27.0167 39.1166C26.7073 39.4261 26.2876 39.5999 25.85 39.5999C25.4124 39.5999 24.9927 39.4261 24.6833 39.1166C24.3738 38.8072 24.2 38.3875 24.2 37.9499V30.2499C24.2 29.8123 24.3738 29.3926 24.6833 29.0832C24.9927 28.7737 25.4124 28.5999 25.85 28.5999ZM36.3 21.4499C36.3 21.0123 36.1262 20.5926 35.8167 20.2832C35.5073 19.9737 35.0876 19.7999 34.65 19.7999C34.2124 19.7999 33.7927 19.9737 33.4833 20.2832C33.1738 20.5926 33 21.0123 33 21.4499V37.9499C33 38.3875 33.1738 38.8072 33.4833 39.1166C33.7927 39.4261 34.2124 39.5999 34.65 39.5999C35.0876 39.5999 35.5073 39.4261 35.8167 39.1166C36.1262 38.8072 36.3 38.3875 36.3 37.9499V21.4499Z" fill="#FF6E22"/>
</svg>
