<svg width="71" height="20" viewBox="0 0 71 20" fill="none" xmlns="http://www.w3.org/2000/svg">
<path fill-rule="evenodd" clip-rule="evenodd" d="M19.2049 15.3451C20.339 12.6734 21.4304 9.0538 21.3895 5.14884V0.913452H0V5.43587H15.5484C15.5484 8.02582 15.4649 13.6179 11.9772 18.9213H17.7757C18.2772 18.1121 18.4492 17.5516 18.6494 16.8996C18.7848 16.4584 18.933 15.9754 19.2049 15.3451ZM24.7271 19.0465H46.0194V0.913452H24.7271V19.0465ZM63.5051 19.0865C67.6289 19.0865 70.697 16.6201 70.697 12.1377V7.69707C70.697 3.6269 67.6289 0.913452 63.5051 0.913452H56.4191C52.2954 0.913452 49.7918 3.95565 49.5104 7.53353C49.4046 8.97197 49.4046 10.7391 49.4046 12.1793V12.1794C49.4046 16.7436 52.4369 19.0865 56.9478 19.0865H63.5051ZM57.6538 5.68285H62.4819C65.0213 5.68285 66.2901 6.87436 66.2901 9.50604V11.1932C66.2901 13.9884 63.7166 14.6459 62.0948 14.6459H57.6538C55.1161 14.6459 54.3043 13.5779 54.0571 11.9742C53.9513 11.1932 53.9172 9.87651 54.0571 8.72504C54.4459 6.05165 55.8205 5.68285 57.6538 5.68285ZM41.6511 5.52952H29.5942V14.4705H41.6511V5.52952Z" fill="#36D97D"/>
</svg>
