<svg width="20" height="20" viewBox="0 0 20 20" fill="none" xmlns="http://www.w3.org/2000/svg">
<path d="M17.5 7.5V15C17.5 15.663 17.2366 16.2989 16.7677 16.7678C16.2989 17.2366 15.663 17.5 15 17.5H4.16663C3.50358 17.5 2.8677 17.2366 2.39886 16.7678C1.93002 16.2989 1.66663 15.663 1.66663 15V7.5C1.66663 6.575 2.16663 5.76667 2.91663 5.33334L9.58329 1.48334L16.25 5.33334C17 5.76667 17.5 6.575 17.5 7.5ZM3.09996 6.225L9.58329 10.4167L16.0666 6.225L9.58329 2.44167L3.09996 6.225ZM9.58329 11.425L2.60829 6.9C2.54163 7.08334 2.49996 7.29167 2.49996 7.5V15C2.49996 15.442 2.67555 15.866 2.98811 16.1785C3.30068 16.4911 3.7246 16.6667 4.16663 16.6667H15C15.442 16.6667 15.8659 16.4911 16.1785 16.1785C16.491 15.866 16.6666 15.442 16.6666 15V7.5C16.6666 7.29167 16.625 7.08334 16.5583 6.9L9.58329 11.425Z" fill="black"/>
</svg>
