<svg width="20" height="20" viewBox="0 0 20 20" fill="none" xmlns="http://www.w3.org/2000/svg">
<path d="M16.875 2.03125H3.125C2.83492 2.03125 2.55672 2.14648 2.3516 2.3516C2.14648 2.55672 2.03125 2.83492 2.03125 3.125V16.875C2.03125 17.1651 2.14648 17.4433 2.3516 17.6484C2.55672 17.8535 2.83492 17.9688 3.125 17.9688H16.875C17.1651 17.9688 17.4433 17.8535 17.6484 17.6484C17.8535 17.4433 17.9688 17.1651 17.9688 16.875V3.125C17.9688 2.83492 17.8535 2.55672 17.6484 2.3516C17.4433 2.14648 17.1651 2.03125 16.875 2.03125ZM17.0312 16.875C17.0312 16.9164 17.0148 16.9562 16.9855 16.9855C16.9562 17.0148 16.9164 17.0312 16.875 17.0312H3.125C3.08356 17.0312 3.04382 17.0148 3.01451 16.9855C2.98521 16.9562 2.96875 16.9164 2.96875 16.875V3.125C2.96875 3.08356 2.98521 3.04382 3.01451 3.01451C3.04382 2.98521 3.08356 2.96875 3.125 2.96875H16.875C16.9164 2.96875 16.9562 2.98521 16.9855 3.01451C17.0148 3.04382 17.0312 3.08356 17.0312 3.125V16.875ZM7.34375 8.75V13.75C7.34375 13.8743 7.29436 13.9935 7.20646 14.0815C7.11855 14.1694 6.99932 14.2188 6.875 14.2188C6.75068 14.2188 6.63145 14.1694 6.54354 14.0815C6.45564 13.9935 6.40625 13.8743 6.40625 13.75V8.75C6.40625 8.62568 6.45564 8.50645 6.54354 8.41854C6.63145 8.33064 6.75068 8.28125 6.875 8.28125C6.99932 8.28125 7.11855 8.33064 7.20646 8.41854C7.29436 8.50645 7.34375 8.62568 7.34375 8.75ZM14.2188 10.9375V13.75C14.2188 13.8743 14.1694 13.9935 14.0815 14.0815C13.9935 14.1694 13.8743 14.2188 13.75 14.2188C13.6257 14.2188 13.5065 14.1694 13.4185 14.0815C13.3306 13.9935 13.2812 13.8743 13.2812 13.75V10.9375C13.2812 10.4817 13.1002 10.0445 12.7778 9.72216C12.4555 9.39983 12.0183 9.21875 11.5625 9.21875C11.1067 9.21875 10.6695 9.39983 10.3472 9.72216C10.0248 10.0445 9.84375 10.4817 9.84375 10.9375V13.75C9.84375 13.8743 9.79436 13.9935 9.70646 14.0815C9.61855 14.1694 9.49932 14.2188 9.375 14.2188C9.25068 14.2188 9.13145 14.1694 9.04354 14.0815C8.95564 13.9935 8.90625 13.8743 8.90625 13.75V8.75C8.90625 8.62568 8.95564 8.50645 9.04354 8.41854C9.13145 8.33064 9.25068 8.28125 9.375 8.28125C9.49932 8.28125 9.61855 8.33064 9.70646 8.41854C9.79436 8.50645 9.84375 8.62568 9.84375 8.75V8.91484C10.2301 8.587 10.7021 8.37647 11.2041 8.30811C11.7062 8.23975 12.2173 8.3164 12.6772 8.52903C13.1371 8.74165 13.5266 9.08137 13.7997 9.50812C14.0729 9.93486 14.2183 10.4308 14.2188 10.9375ZM7.65625 6.5625C7.65625 6.71702 7.61043 6.86806 7.52459 6.99654C7.43874 7.12502 7.31673 7.22515 7.17397 7.28428C7.03122 7.34341 6.87413 7.35888 6.72259 7.32874C6.57104 7.29859 6.43183 7.22419 6.32257 7.11493C6.21331 7.00567 6.13891 6.86646 6.10876 6.71491C6.07862 6.56337 6.09409 6.40628 6.15322 6.26353C6.21235 6.12077 6.31248 5.99876 6.44096 5.91291C6.56944 5.82707 6.72048 5.78125 6.875 5.78125C7.0822 5.78125 7.28091 5.86356 7.42743 6.01007C7.57394 6.15659 7.65625 6.3553 7.65625 6.5625Z" fill="black"/>
</svg>
